<svg xmlns="http://www.w3.org/2000/svg" xmlns:xlink="http://www.w3.org/1999/xlink" version="1.1" x="0px" y="0px" viewBox="0 0 90 112.5" enable-background="new 0 0 90 90" xml:space="preserve"><g><path fill="#000000" d="M55.873,20.196v-4.931c0-1.769-1.438-3.207-3.207-3.207h-15.48c-1.769,0-3.207,1.438-3.207,3.207v4.931   c0,1.769,1.438,3.207,3.207,3.207h15.48C54.435,23.403,55.873,21.965,55.873,20.196z M35.979,20.196v-4.931   c0-0.666,0.542-1.207,1.207-1.207h15.48c0.666,0,1.207,0.542,1.207,1.207v4.931c0,0.666-0.541,1.207-1.207,1.207h-15.48   C36.52,21.403,35.979,20.862,35.979,20.196z"/><path fill="#000000" d="M40.921,15.073c-1.466,0-2.658,1.192-2.658,2.658s1.192,2.658,2.658,2.658s2.658-1.192,2.658-2.658   S42.387,15.073,40.921,15.073z M40.921,18.39c-0.363,0-0.658-0.295-0.658-0.658s0.295-0.658,0.658-0.658s0.658,0.295,0.658,0.658   S41.284,18.39,40.921,18.39z"/><path fill="#000000" d="M48.93,15.073c-1.466,0-2.658,1.192-2.658,2.658s1.192,2.658,2.658,2.658s2.658-1.192,2.658-2.658   S50.396,15.073,48.93,15.073z M48.93,18.39c-0.363,0-0.658-0.295-0.658-0.658s0.295-0.658,0.658-0.658s0.658,0.295,0.658,0.658   S49.293,18.39,48.93,18.39z"/><path fill="#000000" d="M72.375,56.1c0-1.821-1.116-3.386-2.699-4.05l-1.539-5.886c1.542-0.232,2.731-1.553,2.731-3.158v-3.701   c0-1.768-1.438-3.206-3.207-3.206H63.96c-1.768,0-3.206,1.438-3.206,3.206v0.851h-3.559c-0.082-2.992-2.536-5.402-5.547-5.402   h-5.723v-0.775c7.056-0.431,12.9-5.359,14.705-11.956h0.96c1.682,0,3.05-1.368,3.05-3.05v-2.48c0-1.682-1.368-3.051-3.05-3.051   h-0.96C58.74,6.532,52.425,1.434,44.926,1.434c-7.5,0-13.814,5.099-15.705,12.007h-0.96c-1.682,0-3.051,1.369-3.051,3.051v2.48   c0,1.682,1.369,3.05,3.051,3.05h0.96c1.805,6.597,7.649,11.525,14.705,11.956v0.775h-5.723c-2.911,0-5.302,2.251-5.533,5.104   h-3.425v-0.851c0-1.768-1.438-3.206-3.206-3.206h-3.702c-1.767,0-3.205,1.438-3.205,3.206v3.701c0,1.606,1.19,2.928,2.731,3.159   l-1.538,5.884c-1.584,0.664-2.7,2.229-2.7,4.052c0,2.173,1.59,3.97,3.666,4.317l1.974,5.353c0.131,2.306,2.029,4.146,4.366,4.146   c2.421,0,4.392-1.97,4.392-4.392c0-2.421-1.97-4.391-4.392-4.391c-1.353,0-2.55,0.628-3.356,1.594l-0.911-2.47   c1.759-0.573,3.043-2.21,3.043-4.157c0-2.267-1.731-4.114-3.938-4.346l1.449-5.542h2.122c1.768,0,3.206-1.438,3.206-3.207v-0.851   h3.402v23.252c0,1.698,0.769,3.219,1.974,4.238l-1.687,10.656c-3.795,0.43-6.755,3.656-6.755,7.563v1h15.233v-1   c0-0.368-0.035-0.728-0.086-1.082V70.662h7.164v15.829c-0.05,0.353-0.085,0.709-0.085,1.075v1h15.231v-1   c0-3.907-2.959-7.134-6.753-7.563L55.2,69.374c1.223-1.02,2.003-2.553,2.003-4.266V42.155h3.551v0.851   c0,1.768,1.438,3.206,3.206,3.206h2.121l1.45,5.543c-2.207,0.23-3.938,2.079-3.938,4.345c0,1.947,1.283,3.584,3.043,4.157   l-0.911,2.47c-0.806-0.965-2.003-1.593-3.355-1.593c-2.422,0-4.392,1.969-4.392,4.39c0,2.422,1.97,4.393,4.392,4.393   c2.337,0,4.235-1.841,4.365-4.146l1.975-5.353C70.784,60.069,72.375,58.272,72.375,56.1z M61.591,15.44   c0.579,0,1.05,0.471,1.05,1.051v2.48c0,0.579-0.471,1.05-1.05,1.05h-0.548c0.105-0.75,0.18-1.511,0.18-2.29   s-0.074-1.541-0.181-2.291H61.591z M28.261,20.021c-0.58,0-1.051-0.471-1.051-1.05v-2.48c0-0.58,0.471-1.051,1.051-1.051h0.548   c-0.106,0.75-0.18,1.512-0.18,2.291s0.074,1.54,0.18,2.29H28.261z M30.629,17.731c0-7.884,6.414-14.298,14.297-14.298   c7.884,0,14.297,6.414,14.297,14.298c0,7.883-6.413,14.297-14.297,14.297C37.042,32.028,30.629,25.615,30.629,17.731z    M27.63,62.835c0.537,0,1.027,0.184,1.427,0.483H27.63v2h2.382c-0.05,1.274-1.095,2.299-2.382,2.299   c-1.318,0-2.391-1.073-2.391-2.392S26.312,62.835,27.63,62.835z M24.406,55.802c0,1.318-1.073,2.391-2.392,2.391   c-1.318,0-2.39-1.072-2.39-2.391s1.072-2.392,2.39-2.392C23.333,53.41,24.406,54.483,24.406,55.802z M27.245,42.707   c0,0.666-0.541,1.207-1.206,1.207h-3.702c-0.665,0-1.205-0.542-1.205-1.207v-3.701c0-0.665,0.541-1.206,1.205-1.206h3.702   c0.665,0,1.206,0.541,1.206,1.206V42.707z M28.269,86.566c0.473-2.621,2.772-4.616,5.528-4.616s5.054,1.995,5.527,4.616H28.269z    M39.327,82.346c-1.138-1.205-2.662-2.036-4.375-2.298l1.53-9.662c0.542,0.178,1.12,0.276,1.721,0.276h1.124V82.346z    M61.549,86.566H50.495c0.474-2.621,2.771-4.616,5.527-4.616C58.777,81.95,61.075,83.945,61.549,86.566z M54.867,80.048   c-1.713,0.262-3.237,1.093-4.376,2.299V70.662h1.157c0.589,0,1.156-0.094,1.689-0.265L54.867,80.048z M55.203,65.108   c0,1.96-1.595,3.554-3.555,3.554H38.203c-1.96,0-3.556-1.594-3.556-3.554V40.308c0-1.96,1.595-3.555,3.556-3.555h13.445   c1.96,0,3.555,1.595,3.555,3.555V65.108z M62.754,43.006v-3.701c0-0.665,0.541-1.206,1.206-1.206h3.701   c0.666,0,1.207,0.541,1.207,1.206v3.701c0,0.665-0.541,1.206-1.207,1.206H63.96C63.295,44.212,62.754,43.671,62.754,43.006z    M65.593,56.1c0-1.318,1.073-2.391,2.392-2.391s2.391,1.072,2.391,2.391s-1.072,2.391-2.391,2.391S65.593,57.418,65.593,56.1z    M62.369,67.916c-1.286,0-2.332-1.023-2.382-2.299h2.382v-2h-1.427c0.399-0.3,0.891-0.483,1.427-0.483   c1.318,0,2.391,1.072,2.391,2.39C64.76,66.843,63.688,67.916,62.369,67.916z"/><path fill="#000000" d="M44.926,41.674c-3.048,0-5.527,2.479-5.527,5.526c0,3.048,2.479,5.527,5.527,5.527s5.527-2.479,5.527-5.527   C50.453,44.153,47.974,41.674,44.926,41.674z M44.926,50.728c-1.945,0-3.527-1.582-3.527-3.527c0-1.595,1.071-2.93,2.527-3.364   V47.2h2v-3.364c1.456,0.434,2.527,1.77,2.527,3.364C48.453,49.146,46.871,50.728,44.926,50.728z"/></g><text x="0" y="105" fill="#000000" font-size="5px" font-weight="bold" font-family="'Helvetica Neue', Helvetica, Arial-Unicode, Arial, Sans-serif"></text><text x="0" y="110" fill="#000000" font-size="5px" font-weight="bold" font-family="'Helvetica Neue', Helvetica, Arial-Unicode, Arial, Sans-serif"></text></svg>
